<svg xmlns="http://www.w3.org/2000/svg" width="16" height="16">
  <path d="M 4 0 C 2.892 0 2 0.892 2 2 L 2 11 C 2 12.108 2.892 13 4 13 L 7 13 L 7 14 L 3 14 L 3 16 L 10 16 L 10 14 L 9 14 L 9 13 L 10 13 L 10 10 L 14 10 L 14 2 C 14 0.892 13.108 0 12 0 L 4 0 z M 8 2 C 10.216 2 12 3.784 12 6 C 12 8.216 10.216 10 8 10 L 4 10 L 4 6 C 4 3.784 5.784 2 8 2 z M 8 4 C 6.892 4 6 4.892 6 6 C 6 7.108 6.892 8 8 8 C 9.108 8 10 7.108 10 6 C 10 4.892 9.108 4 8 4 z M 11 11 L 11 16 L 16 16 L 16 11 L 11 11 z M 12 12 L 13 12 L 13 13 L 14 13 L 14 12 L 15 12 L 15 14 L 14 14 L 14 15 L 13 15 L 13 14 L 12 14 L 12 12 z "  fill="#c0bfbc" />
</svg>
