<?xml version="1.0" encoding="UTF-8" standalone="no"?>
<svg
   xmlns:dc="http://purl.org/dc/elements/1.1/"
   xmlns:cc="http://creativecommons.org/ns#"
   xmlns:rdf="http://www.w3.org/1999/02/22-rdf-syntax-ns#"
   xmlns:svg="http://www.w3.org/2000/svg"
   xmlns="http://www.w3.org/2000/svg"
   id="svg65"
   viewBox="0 0 128 128.00001"
   version="1.1"
   height="128"
   width="128">
  <defs
     id="defs25">
    <linearGradient
       gradientUnits="userSpaceOnUse"
       gradientTransform="matrix(2,0,0,2,-2e-7,14)"
       y2="37"
       y1="3"
       x2="10"
       x1="10"
       id="d">
      <stop
         id="stop2"
         offset="0"
         stop-color="#acaba8" />
      <stop
         id="stop4"
         offset="1"
         stop-color="#cac9c6" />
    </linearGradient>
    <linearGradient
       gradientUnits="userSpaceOnUse"
       gradientTransform="matrix(4,0,0,4,0,-8)"
       y2="17"
       y1="17"
       x2="29"
       x1="3"
       id="e">
      <stop
         id="stop7"
         offset="0"
         stop-color="#9a9996" />
      <stop
         id="stop9"
         offset=".037101"
         stop-color="#deddda" />
      <stop
         id="stop11"
         offset=".076507"
         stop-color="#9a9996" />
      <stop
         id="stop13"
         offset=".92289"
         stop-color="#9a9996" />
      <stop
         id="stop15"
         offset=".96229"
         stop-color="#deddda" />
      <stop
         id="stop17"
         offset="1"
         stop-color="#9a9996" />
    </linearGradient>
    <linearGradient
       gradientUnits="userSpaceOnUse"
       gradientTransform="matrix(4,0,0,4,0,-12)"
       y2="11"
       y1="21"
       x2="13"
       x1="13.17"
       id="f">
      <stop
         id="stop20"
         offset="0"
         stop-color="#f6f5f4" />
      <stop
         id="stop22"
         offset="1"
         stop-color="#deddda" />
    </linearGradient>
  </defs>
  <metadata
     id="metadata27">
    <rdf:RDF>
      <cc:Work
         rdf:about="">
        <dc:format>image/svg+xml</dc:format>
        <dc:type
           rdf:resource="http://purl.org/dc/dcmitype/StillImage" />
        <dc:title></dc:title>
      </cc:Work>
    </rdf:RDF>
  </metadata>
  <rect
     style="stroke-width:4"
     id="rect29"
     ry="8"
     height="68"
     width="104"
     y="32"
     x="12" />
  <rect
     style="fill:url(#e);stroke-width:4"
     id="rect31"
     ry="8"
     height="68"
     width="104"
     y="24"
     x="12" />
  <rect
     style="fill:url(#d);stroke-width:4"
     id="rect33"
     ry="8"
     height="68"
     width="104"
     y="20"
     x="12" />
  <rect
     style="fill:#77767b;stroke-width:4"
     id="rect35"
     ry="2"
     height="4"
     width="4"
     y="80"
     x="108" />
  <rect
     style="fill:#77767b;stroke-width:4"
     id="rect37"
     ry="2"
     height="4"
     width="4"
     y="24"
     x="108" />
  <rect
     style="fill:#77767b;stroke-width:4"
     id="rect39"
     ry="2"
     height="4"
     width="4"
     y="24"
     x="52" />
  <rect
     style="fill:#77767b;stroke-width:4"
     id="rect41"
     ry="2"
     height="4"
     width="4"
     y="24"
     x="20" />
  <rect
     style="fill:#77767b;stroke-width:4"
     id="rect43"
     ry="2"
     height="4"
     width="4"
     y="80"
     x="20" />
  <rect
     style="fill:#77767b;stroke-width:4"
     id="rect45"
     ry="2"
     height="4"
     width="4"
     y="80"
     x="52" />
  <path
     style="fill:#acaba8;stroke-width:4"
     id="path47"
     d="m 32,28 a 4.0004,4.0004 0 0 0 -4,4 c 0,2.25652 -1.74348,4 -4,4 a 4.0004,4.0004 0 0 0 -4,4 v 32 a 4.0004,4.0004 0 0 0 4,4 c 2.25652,0 4,1.74348 4,4 a 4.0004,4.0004 0 0 0 4,4 h 12 a 4.0004,4.0004 0 0 0 4,-4 c 0,-2.25384 1.73956,-3.99588 3.9922,-4 0.0426,0.0014 0.08632,0.0052 0.125,0.008 A 4.0004,4.0004 0 0 0 52.67968,76 h 6.5624 c 5.1432,4.8128 11.8468,7.9952 18.8984,8 7.3304,0 14.6136,-3.01976 19.7968,-8.2032 5.1832,-5.18344 8.2032,-12.4664 8.2032,-19.7968 0,-7.3304 -3.01976,-14.6136 -8.2032,-19.7968 C 92.75408,31.02 85.47088,28 78.14048,28 a 4.0004,4.0004 0 0 0 -0.008,0 c -7.0416,0.0106 -13.73,3.19548 -18.8672,8 h -7.2656 c -2.25652,0 -4,-1.74348 -4,-4 a 4.0004,4.0004 0 0 0 -4,-4 z" />
  <path
     style="fill:url(#f);stroke-width:4"
     id="path49"
     d="m 32,24 a 4.0004,4.0004 0 0 0 -4,4 c 0,2.25652 -1.74348,4 -4,4 a 4.0004,4.0004 0 0 0 -4,4 v 32 a 4.0004,4.0004 0 0 0 4,4 c 2.25652,0 4,1.74348 4,4 a 4.0004,4.0004 0 0 0 4,4 h 12 a 4.0004,4.0004 0 0 0 4,-4 c 0,-2.25384 1.73956,-3.99588 3.9922,-4 0.0426,0.0014 0.08632,0.0052 0.125,0.008 A 4.0004,4.0004 0 0 0 52.67968,72 h 6.5624 c 5.1432,4.8128 11.8468,7.9952 18.8984,8 7.3304,0 14.6136,-3.01976 19.7968,-8.2032 5.1832,-5.18344 8.2032,-12.4664 8.2032,-19.7968 0,-7.3304 -3.01976,-14.6136 -8.2032,-19.7968 C 92.75408,27.02 85.47088,24 78.14048,24 a 4.0004,4.0004 0 0 0 -0.008,0 c -7.0416,0.0106 -13.73,3.19548 -18.8672,8 h -7.2656 c -2.25652,0 -4,-1.74348 -4,-4 a 4.0004,4.0004 0 0 0 -4,-4 z" />
  <rect
     style="fill:#adaba7;fill-opacity:0.99589999;stroke-width:4"
     id="rect51"
     ry="8"
     height="16"
     width="16"
     y="40"
     x="72" />
  <rect
     style="fill:#cac9c6;fill-opacity:0.99589999;stroke-width:4"
     id="rect53"
     ry="8"
     height="16"
     width="16"
     y="44"
     x="72" />
  <rect
     style="fill:#613583;stroke-width:4"
     id="rect55"
     ry="4"
     height="12"
     width="32"
     y="108"
     x="48" />
  <rect
     style="fill:#613583;stroke-width:4"
     id="rect57"
     ry="0"
     height="4"
     width="96"
     y="112"
     x="16" />
  <rect
     style="fill:#a347ba;stroke-width:4"
     id="rect59"
     height="12"
     width="8"
     y="96"
     x="60" />
  <rect
     style="fill:#a347ba;stroke-width:4"
     id="rect61"
     ry="4"
     height="12"
     width="32"
     y="104"
     x="48" />
  <rect
     style="fill:#a347ba;stroke-width:4"
     id="rect63"
     ry="0"
     height="4"
     width="96"
     y="108"
     x="16" />
</svg>
